<?xml version="1.0" encoding="utf-8"?>
<!-- Generator: Adobe Illustrator 27.5.0, SVG Export Plug-In . SVG Version: 6.00 Build 0)  -->
<svg version="1.1" xmlns="http://www.w3.org/2000/svg" xmlns:xlink="http://www.w3.org/1999/xlink" x="0px" y="0px"
	 viewBox="0 0 500 500" style="enable-background:new 0 0 500 500;" xml:space="preserve">
<defs>
    <!-- Define a linear gradient -->
    <linearGradient id="ellipseGradient" x1="0%" y1="0%" x2="0%" y2="100%">
      <stop offset="0%" style="stop-color:#C1DFF7;stop-opacity:1" />
      <stop offset="100%" style="stop-color:#FFFFFF;stop-opacity:0" />
    </linearGradient>
  </defs>
<g id="OBJECTS">
	<g>
		<ellipse style="fill:url(#ellipseGradient);" cx="250" cy="427.523" rx="195.46" ry="24.617"/>
		<g>
			<g>
				<path style="fill:#FFFFFF;" d="M438.73,276.276c0.23-1.371,0.353-2.791,0.353-4.245c0-11.644-7.791-21.081-17.401-21.081
					c-0.747,0-1.48,0.063-2.202,0.173c-2.434-11.038-10.74-19.169-20.617-19.169c-11.246,0-20.453,10.54-21.274,23.91
					c-1.962-0.267-3.99-0.41-6.066-0.41c-16.936,0-30.683,9.3-30.891,20.822H438.73z"/>
				<path style="fill:#FFFFFF;" d="M169.664,98.987c-0.205-1.223-0.314-2.488-0.314-3.785c0-10.383,6.947-18.799,15.517-18.799
					c0.666,0,1.321,0.057,1.965,0.154c2.168-9.842,9.576-17.094,18.383-17.094c10.028,0,18.238,9.399,18.973,21.322
					c1.75-0.238,3.559-0.365,5.408-0.365c15.104,0,27.361,8.292,27.545,18.566H169.664z"/>
				<path style="fill:#FFFFFF;" d="M70.751,318.749c-0.243-1.441-0.371-2.934-0.371-4.462c0-12.237,8.188-22.157,18.288-22.157
					c0.785,0,1.556,0.066,2.315,0.182c2.557-11.6,11.287-20.146,21.668-20.146c11.819,0,21.495,11.078,22.359,25.129
					c2.063-0.279,4.193-0.429,6.376-0.429c17.801,0,32.248,9.772,32.465,21.884H70.751z"/>
			</g>
			<g>
				<g>
					<g>
						<g>
							<defs>
								<path id="SVGID_1_" d="M406.938,104.7H296.23c-6.846,0-12.393,5.548-12.393,12.393v49.247
									c0,6.844,5.547,12.393,12.393,12.393h110.707c6.844,0,12.393-5.549,12.393-12.393v-49.247
									C419.33,110.248,413.781,104.7,406.938,104.7z"/>
							</defs>
							<clipPath id="SVGID_00000070108031912380889400000014905312000063955607_">
								<use xlink:href="#SVGID_1_"  style="overflow:visible;"/>
							</clipPath>
						</g>
					</g>
					<g>
						<path style="fill:#FFFFFF;" d="M407.711,97.785H295.457c-6.418,0-11.619,5.202-11.619,11.619v60.463
							c0,4.896,3.969,8.865,8.865,8.865h117.762c4.897,0,8.865-3.969,8.865-8.865v-60.463
							C419.33,102.987,414.127,97.785,407.711,97.785z"/>
						<g>
							<defs>
								<path id="SVGID_00000072979819655376894080000007621794877032607385_" d="M406.938,104.7H296.23
									c-6.846,0-12.393,5.548-12.393,12.393v49.247c0,6.844,5.547,12.393,12.393,12.393h110.707
									c6.844,0,12.393-5.549,12.393-12.393v-49.247C419.33,110.248,413.781,104.7,406.938,104.7z"/>
							</defs>
							<clipPath id="SVGID_00000183968619544228243330000009351090802974813612_">
								<use xlink:href="#SVGID_00000072979819655376894080000007621794877032607385_"  style="overflow:visible;"/>
							</clipPath>
							<g style="clip-path:url(#SVGID_00000183968619544228243330000009351090802974813612_);">
								<g>
									<g>
										<polyline style="fill:none;stroke:#B5B9C6;stroke-width:0.8858;stroke-miterlimit:10;" points="373.096,187.941 
											373.096,191.484 376.639,191.484 										"/>
										
											<line style="fill:none;stroke:#B5B9C6;stroke-width:0.8858;stroke-miterlimit:10;stroke-dasharray:4.8326,4.8326;" x1="381.472" y1="191.484" x2="388.721" y2="191.484"/>
										<polyline style="fill:none;stroke:#B5B9C6;stroke-width:0.8858;stroke-miterlimit:10;" points="391.137,191.484 
											394.68,191.484 394.68,187.941 										"/>
										
											<line style="fill:none;stroke:#B5B9C6;stroke-width:0.8858;stroke-miterlimit:10;stroke-dasharray:7.5909,7.5909;" x1="394.68" y1="180.351" x2="394.68" y2="123.419"/>
										<polyline style="fill:none;stroke:#B5B9C6;stroke-width:0.8858;stroke-miterlimit:10;" points="394.68,119.623 
											394.68,116.08 392.338,118.739 										"/>
										
											<polyline style="fill:none;stroke:#B5B9C6;stroke-width:0.8858;stroke-miterlimit:10;stroke-dasharray:6.9518,6.9518;" points="
											387.742,123.955 373.096,140.581 373.096,184.465 										"/>
									</g>
								</g>
								<g>
									<g>
										<polyline style="fill:none;stroke:#B5B9C6;stroke-width:0.8858;stroke-miterlimit:10;" points="337.799,187.941 
											337.799,191.484 341.342,191.484 										"/>
										
											<line style="fill:none;stroke:#B5B9C6;stroke-width:0.8858;stroke-miterlimit:10;stroke-dasharray:4.7017,4.7017;" x1="346.044" y1="191.484" x2="353.097" y2="191.484"/>
										<polyline style="fill:none;stroke:#B5B9C6;stroke-width:0.8858;stroke-miterlimit:10;" points="355.447,191.484 
											358.99,191.484 358.99,187.941 										"/>
										
											<line style="fill:none;stroke:#B5B9C6;stroke-width:0.8858;stroke-miterlimit:10;stroke-dasharray:7.4495,7.4495;" x1="358.99" y1="180.492" x2="358.99" y2="139.52"/>
										<polyline style="fill:none;stroke:#B5B9C6;stroke-width:0.8858;stroke-miterlimit:10;" points="358.99,135.795 
											358.99,132.252 356.685,134.942 										"/>
										
											<polyline style="fill:none;stroke:#B5B9C6;stroke-width:0.8858;stroke-miterlimit:10;stroke-dasharray:6.6649,6.6649;" points="
											352.348,140.003 337.799,156.981 337.799,184.609 										"/>
									</g>
								</g>
								<g>
									<g>
										<polyline style="fill:none;stroke:#B5B9C6;stroke-width:0.8858;stroke-miterlimit:10;" points="303.43,187.941 
											303.43,191.484 306.973,191.484 										"/>
										
											<line style="fill:none;stroke:#B5B9C6;stroke-width:0.8858;stroke-miterlimit:10;stroke-dasharray:4.5162,4.5162;" x1="311.489" y1="191.484" x2="318.264" y2="191.484"/>
										<polyline style="fill:none;stroke:#B5B9C6;stroke-width:0.8858;stroke-miterlimit:10;" points="320.521,191.484 
											324.064,191.484 324.064,187.941 										"/>
										
											<line style="fill:none;stroke:#B5B9C6;stroke-width:0.8858;stroke-miterlimit:10;stroke-dasharray:7.4443,7.4443;" x1="324.064" y1="180.497" x2="324.064" y2="154.442"/>
										<polyline style="fill:none;stroke:#B5B9C6;stroke-width:0.8858;stroke-miterlimit:10;" points="324.064,150.72 
											324.064,147.177 321.752,149.861 										"/>
										
											<polyline style="fill:none;stroke:#B5B9C6;stroke-width:0.8858;stroke-miterlimit:10;stroke-dasharray:6.4118,6.4118;" points="
											317.567,154.72 303.43,171.134 303.43,184.735 										"/>
									</g>
								</g>
							</g>
						</g>
						<g>
							<polygon style="fill:#00AAE6;" points="362.648,131.119 338.063,160.066 333.188,156.441 357.771,127.494 							"/>
							<polygon style="fill:#00AAE6;" points="397.088,117.012 372.502,145.959 367.627,142.334 392.213,113.387 394.625,115.181 
															"/>
							<polygon style="fill:#00AAE6;" points="381.139,114.394 398.648,111.288 398.648,127.411 							"/>
							<polygon style="fill:#00AAE6;" points="353.814,132.065 372.408,145.889 376.281,141.327 357.689,127.504 							"/>
							<polygon style="fill:#00AAE6;" points="328.199,145.131 303.615,174.077 298.738,170.453 323.324,141.505 							"/>
							<polygon style="fill:#00AAE6;" points="319.365,146.076 337.959,159.899 341.832,155.338 323.24,141.515 							"/>
						</g>
					</g>
					<g>
						<g>
							<defs>
								<path id="SVGID_00000063600575248180344320000017725369686308815779_" d="M406.938,104.7H296.23
									c-6.846,0-12.393,5.548-12.393,12.393v49.247c0,6.844,5.547,12.393,12.393,12.393h110.707
									c6.844,0,12.393-5.549,12.393-12.393v-49.247C419.33,110.248,413.781,104.7,406.938,104.7z"/>
							</defs>
							<clipPath id="SVGID_00000141419958266413033470000005630599899914625432_">
								<use xlink:href="#SVGID_00000063600575248180344320000017725369686308815779_"  style="overflow:visible;"/>
							</clipPath>
						</g>
					</g>
				</g>
				<g>
					<path style="fill:#FFFFFF;" d="M218.041,156.749H105.787c-6.417,0-11.619,5.202-11.619,11.619v60.463
						c0,4.896,3.969,8.865,8.864,8.865h117.764c4.895,0,8.864-3.969,8.864-8.865v-60.463
						C229.66,161.951,224.458,156.749,218.041,156.749z"/>
					<g>
						<defs>
							<path id="SVGID_00000021808122025433117690000014324952516244735113_" d="M217.269,163.664H106.561
								c-6.845,0-12.393,5.548-12.393,12.393v49.247c0,6.844,5.548,12.393,12.393,12.393h110.708
								c6.844,0,12.392-5.549,12.392-12.393v-49.247C229.66,169.212,224.112,163.664,217.269,163.664z"/>
						</defs>
						<clipPath id="SVGID_00000035500492632377453820000015077012189739891370_">
							<use xlink:href="#SVGID_00000021808122025433117690000014324952516244735113_"  style="overflow:visible;"/>
						</clipPath>
						<g style="clip-path:url(#SVGID_00000035500492632377453820000015077012189739891370_);">
							<g>
								<g>
									<polyline style="fill:none;stroke:#B5B9C6;stroke-width:0.8858;stroke-miterlimit:10;" points="91.933,221.454 
										89.719,221.454 89.719,223.669 									"/>
									<polyline style="fill:none;stroke:#B5B9C6;stroke-width:0.8858;stroke-miterlimit:10;" points="89.719,229.696 
										89.719,231.91 91.933,231.91 									"/>
									
										<line style="fill:none;stroke:#B5B9C6;stroke-width:0.8858;stroke-miterlimit:10;stroke-dasharray:4.4436,4.4436;" x1="96.377" y1="231.91" x2="174.139" y2="231.91"/>
									<polyline style="fill:none;stroke:#B5B9C6;stroke-width:0.8858;stroke-miterlimit:10;" points="176.361,231.91 
										178.575,231.91 176.493,231.156 									"/>
									
										<polyline style="fill:none;stroke:#B5B9C6;stroke-width:0.8858;stroke-miterlimit:10;stroke-dasharray:4.5401,4.5401;" points="
										172.224,229.61 149.703,221.454 94.203,221.454 									"/>
								</g>
							</g>
							<g>
								<g>
									
										<line style="fill:none;stroke:#B5B9C6;stroke-width:0.8858;stroke-miterlimit:10;" x1="148.487" y1="199.785" x2="146.273" y2="199.754"/>
									
										<line style="fill:none;stroke:#B5B9C6;stroke-width:0.8858;stroke-miterlimit:10;stroke-dasharray:4.451,4.451;" x1="141.823" y1="199.69" x2="90.642" y2="198.962"/>
									<polyline style="fill:none;stroke:#B5B9C6;stroke-width:0.8858;stroke-miterlimit:10;" points="88.416,198.931 
										86.202,198.899 86.202,201.114 									"/>
									
										<line style="fill:none;stroke:#B5B9C6;stroke-width:0.8858;stroke-miterlimit:10;stroke-dasharray:2.3509,2.3509;" x1="86.202" y1="203.465" x2="86.202" y2="206.991"/>
									<polyline style="fill:none;stroke:#B5B9C6;stroke-width:0.8858;stroke-miterlimit:10;" points="86.202,208.167 
										86.202,210.381 88.416,210.381 									"/>
									
										<line style="fill:none;stroke:#B5B9C6;stroke-width:0.8858;stroke-miterlimit:10;stroke-dasharray:4.3734,4.3734;" x1="92.79" y1="210.381" x2="169.324" y2="210.381"/>
									
										<line style="fill:none;stroke:#B5B9C6;stroke-width:0.8858;stroke-miterlimit:10;" x1="171.511" y1="210.381" x2="173.726" y2="210.381"/>
								</g>
							</g>
							<g>
								<g>
									
										<line style="fill:none;stroke:#B5B9C6;stroke-width:0.8858;stroke-miterlimit:10;" x1="110.448" y1="175.698" x2="108.234" y2="175.698"/>
									
										<line style="fill:none;stroke:#B5B9C6;stroke-width:0.8858;stroke-miterlimit:10;stroke-dasharray:4.6178,4.6178;" x1="103.616" y1="175.698" x2="96.689" y2="175.698"/>
									<polyline style="fill:none;stroke:#B5B9C6;stroke-width:0.8858;stroke-miterlimit:10;" points="94.38,175.698 
										92.166,175.698 92.166,177.913 									"/>
									
										<line style="fill:none;stroke:#B5B9C6;stroke-width:0.8858;stroke-miterlimit:10;stroke-dasharray:3.124,3.124;" x1="92.166" y1="181.037" x2="92.166" y2="185.723"/>
									<polyline style="fill:none;stroke:#B5B9C6;stroke-width:0.8858;stroke-miterlimit:10;" points="92.166,187.285 
										92.166,189.499 94.38,189.499 									"/>
									
										<line style="fill:none;stroke:#B5B9C6;stroke-width:0.8858;stroke-miterlimit:10;stroke-dasharray:3.9306,3.9306;" x1="98.311" y1="189.499" x2="127.791" y2="189.499"/>
									
										<line style="fill:none;stroke:#B5B9C6;stroke-width:0.8858;stroke-miterlimit:10;" x1="129.756" y1="189.499" x2="131.971" y2="189.499"/>
								</g>
							</g>
						</g>
					</g>
					<g>
						<rect x="108.989" y="175.698" style="fill:#CD5A2E;" width="16.447" height="61.684"/>
						<rect x="128.721" y="188.688" style="fill:#CD5A2E;" width="16.446" height="48.694"/>
						<rect x="148.068" y="199.222" style="fill:#CD5A2E;" width="16.447" height="38.16"/>
						<rect x="167.321" y="209.852" style="fill:#CD5A2E;" width="16.447" height="27.53"/>
					</g>
				</g>
			</g>
			<g>
				<path style="fill:#F7A91E;" d="M259.863,118.579c0-17.743-14.386-32.128-32.129-32.128c-17.743,0-32.128,14.385-32.128,32.128
					c0,17.744,14.385,32.128,32.128,32.128C245.477,150.707,259.863,136.323,259.863,118.579z"/>
				<path style="fill:#F9C605;" d="M258.6,118.579c0-17.046-13.819-30.864-30.865-30.864s-30.864,13.818-30.864,30.864
					s13.818,30.864,30.864,30.864S258.6,135.625,258.6,118.579z"/>
				<path style="fill:#F7A91E;" d="M253.984,118.579c0-14.496-11.753-26.248-26.25-26.248c-14.497,0-26.248,11.752-26.248,26.248
					c0,14.497,11.751,26.248,26.248,26.248C242.231,144.827,253.984,133.076,253.984,118.579z"/>
				<path style="fill:#FFD961;" d="M220.702,148.63l36.267-39.95c-1.264-3.732-3.221-7.145-5.719-10.082l-41.137,45.315
					C213.265,146.109,216.844,147.73,220.702,148.63z"/>
				<path style="fill:#FFD961;" d="M226.948,149.425l31.415-34.607c-0.127-1.041-0.305-2.065-0.533-3.072l-33.991,37.445
					C224.86,149.318,225.898,149.398,226.948,149.425z"/>
				<path style="fill:#F9C605;" d="M213.244,140.465c3.266,2.165,7.043,3.616,11.112,4.14l28.959-31.9
					c-0.909-3.971-2.715-7.6-5.198-10.657L213.244,140.465z"/>
				<path style="fill:#F9C605;" d="M231.351,144.573l22.606-24.9c0.016-0.363,0.027-0.727,0.027-1.094
					c0-0.831-0.045-1.652-0.119-2.465l-26.064,28.712C229.006,144.823,230.189,144.733,231.351,144.573z"/>
				<path style="fill:#FFFFFF;" d="M241.244,130.972c0.458-0.678,0.813-1.394,1.077-2.142l-5.126,5.648
					C238.932,133.56,240.283,132.391,241.244,130.972z"/>
				<path id="XMLID_14_" style="opacity:0.73;fill:#FFFFFF;" d="M238.023,118.759c0.034-0.03,0.067-0.063,0.102-0.095
					c-0.034-0.031-0.067-0.064-0.102-0.095c2.97-1.506,4.777-4.735,4.777-7.964c0-5.175-4.054-9.03-8.929-9.77v-4.335h-3.187v4.209
					l-5.748,0.017v-4.226h-3.188v4.235l-0.586,0.001l0,0h-8.459v3.188h4.799v14.739v14.734h-4.836v3.188h6.917l2.165,0.007v4.065
					h3.188v-4.057l5.748,0.018v4.039h3.187v-4.167c4.875-0.738,8.929-4.594,8.929-9.768
					C242.801,123.494,240.993,120.266,238.023,118.759z M229.931,131.026h-4.993v-9.513c1.936,0,3.831-0.042,5.768,0
					c2.841,0,5.166,1.895,5.166,4.821C235.871,129.649,232.857,131.026,229.931,131.026z M230.705,115.814
					c-1.936,0.043-3.831,0-5.768,0v-9.514h4.993c2.927,0,5.94,1.378,5.94,4.692C235.871,113.92,233.546,115.814,230.705,115.814z"/>
				<path style="fill:#FFFFFF;" d="M242.533,124.581c-0.602-2.442-2.203-4.651-4.51-5.822c0.034-0.03,0.067-0.063,0.102-0.095
					c-0.034-0.031-0.067-0.064-0.102-0.095c2.97-1.506,4.777-4.735,4.777-7.964c0-0.825-0.113-1.612-0.307-2.363l-12.046,13.271
					c0.087,0.002,0.171-0.001,0.257,0.001c2.841,0,5.166,1.895,5.166,4.821c0,3.314-3.014,4.691-5.94,4.691h-4.993v-3.443
					l-8.172,9.003h2.819l2.165,0.007v4.065h3.188v-4.057l5.748,0.018v1.013L242.533,124.581z"/>
				<g>
					<path style="fill:#FFFFFF;" d="M242.635,128.486l-6.842,7.535C239.227,134.864,241.956,132.104,242.635,128.486z"/>
					<polygon style="fill:#FFD961;" points="233.872,138.138 231.584,140.658 233.872,140.658 					"/>
				</g>
			</g>
			<g>
				<g>
					
						<rect x="132.86" y="292.45" transform="matrix(-1 -1.224647e-16 1.224647e-16 -1 311.6807 591.7148)" style="fill:#F7A91E;" width="45.96" height="6.814"/>
					
						<rect x="132.86" y="291.915" transform="matrix(-1 -1.224647e-16 1.224647e-16 -1 311.6807 584.3652)" style="fill:#F9C605;" width="45.96" height="0.535"/>
					
						<rect x="132.86" y="299.265" transform="matrix(-1 -1.224647e-16 1.224647e-16 -1 311.6807 599.0644)" style="fill:#F7A91E;" width="45.96" height="0.535"/>
					
						<rect x="152.229" y="292.45" transform="matrix(-1 -1.224647e-16 1.224647e-16 -1 308.5683 591.7148)" style="fill:#F9C605;" width="4.111" height="6.814"/>
					<rect x="158.124" y="292.45" style="fill:#F9C605;" width="7.778" height="6.814"/>
					
						<rect x="147.74" y="292.45" transform="matrix(-1 -1.224647e-16 1.224647e-16 -1 298.2021 591.7148)" style="fill:#F9C605;" width="2.722" height="6.814"/>
					
						<rect x="132.86" y="292.45" transform="matrix(-1 -1.224647e-16 1.224647e-16 -1 267.0411 591.7148)" style="fill:#F9C605;" width="1.32" height="6.814"/>
					<rect x="143.548" y="292.45" style="fill:#FFD961;" width="2.836" height="6.814"/>
					<rect x="135.394" y="292.45" style="fill:#FFD961;" width="6.814" height="6.814"/>
				</g>
				<g>
					
						<rect x="127.524" y="284.565" transform="matrix(-1 -1.224647e-16 1.224647e-16 -1 301.0078 575.9453)" style="fill:#F7A91E;" width="45.959" height="6.814"/>
					
						<rect x="127.524" y="284.031" transform="matrix(-1 -1.224647e-16 1.224647e-16 -1 301.0078 568.5967)" style="fill:#F9C605;" width="45.959" height="0.534"/>
					
						<rect x="127.524" y="291.38" transform="matrix(-1 -1.224647e-16 1.224647e-16 -1 301.0078 583.2949)" style="fill:#F7A91E;" width="45.959" height="0.535"/>
					
						<rect x="146.892" y="284.565" transform="matrix(-1 -1.224647e-16 1.224647e-16 -1 297.8945 575.9453)" style="fill:#F9C605;" width="4.111" height="6.814"/>
					<rect x="152.787" y="284.565" style="fill:#F9C605;" width="7.779" height="6.814"/>
					
						<rect x="142.403" y="284.565" transform="matrix(-1 -1.224647e-16 1.224647e-16 -1 287.5283 575.9453)" style="fill:#F9C605;" width="2.722" height="6.814"/>
					
						<rect x="127.524" y="284.565" transform="matrix(-1 -1.224647e-16 1.224647e-16 -1 256.3682 575.9453)" style="fill:#F9C605;" width="1.319" height="6.814"/>
					<rect x="138.211" y="284.565" style="fill:#FFD961;" width="2.837" height="6.814"/>
					<rect x="130.058" y="284.565" style="fill:#FFD961;" width="6.813" height="6.814"/>
				</g>
				<g>
					
						<rect x="141.851" y="276.681" transform="matrix(-1 -1.224647e-16 1.224647e-16 -1 329.6602 560.1758)" style="fill:#F7A91E;" width="45.959" height="6.814"/>
					
						<rect x="141.851" y="276.147" transform="matrix(-1 -1.224647e-16 1.224647e-16 -1 329.6602 552.8272)" style="fill:#F9C605;" width="45.959" height="0.534"/>
					
						<rect x="141.851" y="283.495" transform="matrix(-1 -1.224647e-16 1.224647e-16 -1 329.6602 567.5264)" style="fill:#F7A91E;" width="45.959" height="0.536"/>
					
						<rect x="161.218" y="276.681" transform="matrix(-1 -1.224647e-16 1.224647e-16 -1 326.5479 560.1758)" style="fill:#F9C605;" width="4.112" height="6.814"/>
					<rect x="167.113" y="276.681" style="fill:#F9C605;" width="7.779" height="6.814"/>
					
						<rect x="156.73" y="276.681" transform="matrix(-1 -1.224647e-16 1.224647e-16 -1 316.1826 560.1758)" style="fill:#F9C605;" width="2.722" height="6.814"/>
					
						<rect x="141.851" y="276.681" transform="matrix(-1 -1.224647e-16 1.224647e-16 -1 285.0215 560.1758)" style="fill:#F9C605;" width="1.32" height="6.814"/>
					<rect x="152.537" y="276.681" style="fill:#FFD961;" width="2.837" height="6.814"/>
					<rect x="144.384" y="276.681" style="fill:#FFD961;" width="6.814" height="6.814"/>
				</g>
				<g>
					
						<rect x="135.624" y="268.797" transform="matrix(-1 -1.224647e-16 1.224647e-16 -1 317.207 544.4082)" style="fill:#F7A91E;" width="45.959" height="6.814"/>
					
						<rect x="135.624" y="268.262" transform="matrix(-1 -1.224647e-16 1.224647e-16 -1 317.207 537.0586)" style="fill:#F9C605;" width="45.959" height="0.535"/>
					
						<rect x="135.624" y="275.611" transform="matrix(-1 -1.224647e-16 1.224647e-16 -1 317.207 551.7578)" style="fill:#F7A91E;" width="45.959" height="0.535"/>
					
						<rect x="154.991" y="268.797" transform="matrix(-1 -1.224647e-16 1.224647e-16 -1 314.0937 544.4082)" style="fill:#F9C605;" width="4.111" height="6.814"/>
					<rect x="160.888" y="268.797" style="fill:#F9C605;" width="7.778" height="6.814"/>
					
						<rect x="150.503" y="268.797" transform="matrix(-1 -1.224647e-16 1.224647e-16 -1 303.7285 544.4082)" style="fill:#F9C605;" width="2.723" height="6.814"/>
					
						<rect x="135.624" y="268.797" transform="matrix(-1 -1.224647e-16 1.224647e-16 -1 272.5683 544.4082)" style="fill:#F9C605;" width="1.32" height="6.814"/>
					<rect x="146.311" y="268.797" style="fill:#FFD961;" width="2.837" height="6.814"/>
					<rect x="138.157" y="268.797" style="fill:#FFD961;" width="6.814" height="6.814"/>
				</g>
				<g>
					
						<rect x="130.678" y="260.912" transform="matrix(-1 -1.224647e-16 1.224647e-16 -1 307.3144 528.6387)" style="fill:#F7A91E;" width="45.959" height="6.814"/>
					
						<rect x="130.678" y="260.377" transform="matrix(-1 -1.224647e-16 1.224647e-16 -1 307.3144 521.2891)" style="fill:#F9C605;" width="45.959" height="0.535"/>
					
						<rect x="130.678" y="267.727" transform="matrix(-1 -1.224647e-16 1.224647e-16 -1 307.3144 535.9883)" style="fill:#F7A91E;" width="45.959" height="0.535"/>
					
						<rect x="150.045" y="260.912" transform="matrix(-1 -1.224647e-16 1.224647e-16 -1 304.2021 528.6387)" style="fill:#F9C605;" width="4.112" height="6.814"/>
					<rect x="155.94" y="260.912" style="fill:#F9C605;" width="7.779" height="6.814"/>
					
						<rect x="145.557" y="260.912" transform="matrix(-1 -1.224647e-16 1.224647e-16 -1 293.8359 528.6387)" style="fill:#F9C605;" width="2.723" height="6.814"/>
					
						<rect x="130.678" y="260.912" transform="matrix(-1 -1.224647e-16 1.224647e-16 -1 262.6757 528.6387)" style="fill:#F9C605;" width="1.32" height="6.814"/>
					<rect x="141.364" y="260.912" style="fill:#FFD961;" width="2.837" height="6.814"/>
					<rect x="133.211" y="260.912" style="fill:#FFD961;" width="6.814" height="6.814"/>
				</g>
				<g>
					
						<rect x="140.294" y="253.027" transform="matrix(-1 -1.224647e-16 1.224647e-16 -1 326.5468 512.8691)" style="fill:#F7A91E;" width="45.959" height="6.814"/>
					
						<rect x="140.294" y="252.492" transform="matrix(-1 -1.224647e-16 1.224647e-16 -1 326.5468 505.5195)" style="fill:#F9C605;" width="45.959" height="0.535"/>
					
						<rect x="140.294" y="259.842" transform="matrix(-1 -1.224647e-16 1.224647e-16 -1 326.5468 520.2188)" style="fill:#F7A91E;" width="45.959" height="0.535"/>
					
						<rect x="159.662" y="253.027" transform="matrix(-1 -1.224647e-16 1.224647e-16 -1 323.4355 512.8691)" style="fill:#F9C605;" width="4.111" height="6.814"/>
					<rect x="165.558" y="253.027" style="fill:#F9C605;" width="7.778" height="6.814"/>
					
						<rect x="155.174" y="253.027" transform="matrix(-1 -1.224647e-16 1.224647e-16 -1 313.0693 512.8691)" style="fill:#F9C605;" width="2.722" height="6.814"/>
					
						<rect x="140.294" y="253.027" transform="matrix(-1 -1.224647e-16 1.224647e-16 -1 281.9082 512.8691)" style="fill:#F9C605;" width="1.32" height="6.814"/>
					<rect x="150.98" y="253.027" style="fill:#FFD961;" width="2.837" height="6.814"/>
					<rect x="142.827" y="253.027" style="fill:#FFD961;" width="6.814" height="6.814"/>
				</g>
			</g>
			<g>
				<rect x="288.109" y="271.218" style="fill:#2E333B;" width="121.764" height="144.417"/>
				<rect x="288.109" y="271.218" style="fill:#0451BB;" width="121.764" height="32.399"/>
				<rect x="288.109" y="307.833" style="fill:#0451BB;" width="121.764" height="32.4"/>
				<rect x="288.109" y="344.45" style="fill:#0451BB;" width="121.764" height="32.399"/>
				<rect x="288.109" y="381.107" style="fill:#0451BB;" width="121.764" height="32.399"/>
				<g>
					<path style="fill:#FFFFFF;" d="M357.689,291.91h-55.525c-1.367,0-2.473-1.108-2.473-2.474v-1.045
						c0-1.367,1.105-2.475,2.473-2.475h55.525c1.365,0,2.473,1.107,2.473,2.475v1.045
						C360.162,290.802,359.055,291.91,357.689,291.91z"/>
					<path style="fill:#F9C605;" d="M386.01,292.324h-1.045c-1.365,0-2.473-1.107-2.473-2.474v-1.046
						c0-1.365,1.107-2.473,2.473-2.473h1.045c1.367,0,2.475,1.108,2.475,2.473v1.046
						C388.484,291.217,387.377,292.324,386.01,292.324z"/>
					<path style="fill:#A1B527;" d="M375.809,292.324h-1.047c-1.365,0-2.473-1.107-2.473-2.474v-1.046
						c0-1.365,1.107-2.473,2.473-2.473h1.047c1.365,0,2.473,1.108,2.473,2.473v1.046
						C378.281,291.217,377.174,292.324,375.809,292.324z"/>
					<path style="fill:#CD5A2E;" d="M396.215,292.324h-1.047c-1.365,0-2.473-1.107-2.473-2.474v-1.046
						c0-1.365,1.107-2.473,2.473-2.473h1.047c1.365,0,2.473,1.108,2.473,2.473v1.046
						C398.688,291.217,397.58,292.324,396.215,292.324z"/>
				</g>
				<g>
					<path style="fill:#FFFFFF;" d="M357.492,328.259h-55.527c-1.365,0-2.473-1.107-2.473-2.474v-1.045
						c0-1.366,1.107-2.475,2.473-2.475h55.527c1.365,0,2.473,1.108,2.473,2.475v1.045
						C359.965,327.151,358.857,328.259,357.492,328.259z"/>
					<path style="fill:#F9C605;" d="M385.814,328.672h-1.047c-1.365,0-2.475-1.107-2.475-2.473v-1.046
						c0-1.366,1.109-2.473,2.475-2.473h1.047c1.365,0,2.473,1.106,2.473,2.473v1.046
						C388.287,327.565,387.18,328.672,385.814,328.672z"/>
					<path style="fill:#A1B527;" d="M375.609,328.672h-1.045c-1.367,0-2.473-1.107-2.473-2.473v-1.046
						c0-1.366,1.105-2.473,2.473-2.473h1.045c1.367,0,2.473,1.106,2.473,2.473v1.046
						C378.082,327.565,376.977,328.672,375.609,328.672z"/>
					<path style="fill:#CD5A2E;" d="M396.016,328.672h-1.045c-1.365,0-2.473-1.107-2.473-2.473v-1.046
						c0-1.366,1.108-2.473,2.473-2.473h1.045c1.367,0,2.475,1.106,2.475,2.473v1.046
						C398.49,327.565,397.383,328.672,396.016,328.672z"/>
				</g>
				<g>
					<path style="fill:#FFFFFF;" d="M357.492,364.607h-55.527c-1.365,0-2.473-1.107-2.473-2.473v-1.046
						c0-1.366,1.107-2.475,2.473-2.475h55.527c1.365,0,2.473,1.108,2.473,2.475v1.046
						C359.965,363.5,358.857,364.607,357.492,364.607z"/>
					<path style="fill:#F9C605;" d="M385.814,365.021h-1.047c-1.365,0-2.475-1.106-2.475-2.473v-1.046
						c0-1.366,1.109-2.473,2.475-2.473h1.047c1.365,0,2.473,1.106,2.473,2.473v1.046
						C388.287,363.914,387.18,365.021,385.814,365.021z"/>
					<path style="fill:#A1B527;" d="M375.609,365.021h-1.045c-1.367,0-2.473-1.106-2.473-2.473v-1.046
						c0-1.366,1.105-2.473,2.473-2.473h1.045c1.367,0,2.473,1.106,2.473,2.473v1.046
						C378.082,363.914,376.977,365.021,375.609,365.021z"/>
					<path style="fill:#CD5A2E;" d="M396.016,365.021h-1.045c-1.365,0-2.473-1.106-2.473-2.473v-1.046
						c0-1.366,1.108-2.473,2.473-2.473h1.045c1.367,0,2.475,1.106,2.475,2.473v1.046
						C398.49,363.914,397.383,365.021,396.016,365.021z"/>
				</g>
				<g>
					<path style="fill:#FFFFFF;" d="M357.492,400.956h-55.527c-1.365,0-2.473-1.107-2.473-2.474v-1.045
						c0-1.366,1.107-2.474,2.473-2.474h55.527c1.365,0,2.473,1.107,2.473,2.474v1.045
						C359.965,399.849,358.857,400.956,357.492,400.956z"/>
					<path style="fill:#F9C605;" d="M385.814,401.369h-1.047c-1.365,0-2.475-1.107-2.475-2.473v-1.046
						c0-1.366,1.109-2.473,2.475-2.473h1.047c1.365,0,2.473,1.107,2.473,2.473v1.046
						C388.287,400.262,387.18,401.369,385.814,401.369z"/>
					<path style="fill:#A1B527;" d="M375.609,401.369h-1.045c-1.367,0-2.473-1.107-2.473-2.473v-1.046
						c0-1.366,1.105-2.473,2.473-2.473h1.045c1.367,0,2.473,1.107,2.473,2.473v1.046
						C378.082,400.262,376.977,401.369,375.609,401.369z"/>
					<path style="fill:#CD5A2E;" d="M396.016,401.369h-1.045c-1.365,0-2.473-1.107-2.473-2.473v-1.046
						c0-1.366,1.108-2.473,2.473-2.473h1.045c1.367,0,2.475,1.107,2.475,2.473v1.046
						C398.49,400.262,397.383,401.369,396.016,401.369z"/>
				</g>
			</g>
			<g>
				<g>
					<g>
						<path style="fill:#9CA1AF;" d="M103.82,408.393H92.541h-1.705c-0.739,0-1.455-0.085-2.134-0.233l7.848,16.063
							c0.257,0.521,0.907,0.868,1.632,0.868c0.725,0,1.373-0.347,1.63-0.868l7.732-15.83H103.82z"/>
						<path style="fill:#9CA1AF;" d="M191.08,408.393h-0.171h-11.281h-3.725l7.735,15.83c0.255,0.521,0.906,0.868,1.633,0.868
							c0.722,0,1.372-0.347,1.629-0.868l8.148-16.675C193.883,408.081,192.529,408.393,191.08,408.393z"/>
					</g>
					<path style="fill:#B5B9C6;" d="M191.08,299.8H90.836c-4.294,0-7.784,3.493-7.784,7.789v93.271c0,3.551,2.392,6.547,5.65,7.481
						c0.679,0.192,1.395,0.303,2.134,0.303h1.705h11.279h3.724h68.359h3.725h11.281h0.171c1.449,0,2.803-0.404,3.969-1.096
						c2.28-1.36,3.818-3.845,3.818-6.689v-93.271C198.867,303.293,195.374,299.8,191.08,299.8z"/>
					<g>
						<path style="fill:#9CA1AF;" d="M177.016,310.941h-72.116c-5.519,0-9.992,4.474-9.992,9.992v70.377
							c0,2.824,1.902,5.207,4.493,5.95c0.54,0.152,1.109,0.241,1.697,0.241h1.355h8.971h2.962h54.363h2.963h8.971h0.136
							c1.152,0,2.23-0.321,3.156-0.871c1.814-1.083,3.037-3.059,3.037-5.32v-70.373
							C187.012,315.416,182.536,310.941,177.016,310.941z"/>
						<g>
							<g>
								<path style="fill:#2E333B;" d="M95.789,344.888c1.208-0.387,2.088-1.521,2.088-2.857v-11.411
									c0-1.349-0.894-2.49-2.119-2.868c-0.28-0.087-0.575-0.134-0.882-0.134c-0.266,0-0.521,0.036-0.766,0.103
									c-1.285,0.339-2.235,1.509-2.235,2.899v11.411c0,1.383,0.938,2.546,2.212,2.893c0.252,0.068,0.516,0.108,0.789,0.108
									C95.193,345.031,95.501,344.978,95.789,344.888z"/>
								<path style="fill:#2E333B;" d="M97.639,381.826c0.191-0.394,0.302-0.832,0.302-1.298v-11.413
									c0-1.359-0.91-2.509-2.151-2.878c-0.27-0.079-0.555-0.124-0.85-0.124c-0.296,0-0.582,0.045-0.853,0.124
									c-1.241,0.369-2.149,1.519-2.149,2.878v11.413c0,1.653,1.347,3.001,3.002,3.001c0.405,0,0.791-0.083,1.144-0.228
									C96.767,383.019,97.32,382.488,97.639,381.826z"/>
							</g>
						</g>
					</g>
					<g>
						<g>
							<path style="fill:#2E333B;" d="M140.959,333.624c-11.359,0-20.597,9.238-20.597,20.598c0,11.357,9.237,20.601,20.597,20.601
								c11.358,0,20.598-9.243,20.598-20.601C161.557,342.862,152.317,333.624,140.959,333.624z"/>
						</g>
						<path style="fill:none;stroke:#FFFFFF;stroke-width:0.846;stroke-miterlimit:10;" d="M140.959,338.288
							c-8.791,0-15.938,7.147-15.938,15.933c0,8.79,7.147,15.939,15.938,15.939c8.787,0,15.938-7.149,15.938-15.939
							C156.897,345.435,149.746,338.288,140.959,338.288z"/>
						<path style="fill:#FFFFFF;" d="M140.959,348.809c-2.987,0-5.417,2.429-5.417,5.415c0,2.986,2.43,5.416,5.417,5.416
							c2.986,0,5.417-2.43,5.417-5.416C146.376,351.237,143.945,348.809,140.959,348.809z"/>
					</g>
				</g>
			</g>
			<g>
				<g>
					<rect x="332.246" y="263.23" style="fill:#F7A91E;" width="49.951" height="7.405"/>
					<rect x="332.246" y="262.648" style="fill:#F9C605;" width="49.951" height="0.582"/>
					<rect x="332.246" y="270.636" style="fill:#F7A91E;" width="49.951" height="0.582"/>
					<rect x="356.68" y="263.23" style="fill:#F9C605;" width="4.469" height="7.405"/>
					
						<rect x="346.285" y="263.23" transform="matrix(-1 -1.224647e-16 1.224647e-16 -1 701.0254 533.8662)" style="fill:#F9C605;" width="8.455" height="7.405"/>
					<rect x="363.068" y="263.23" style="fill:#F9C605;" width="2.957" height="7.405"/>
					<rect x="380.764" y="263.23" style="fill:#F9C605;" width="1.434" height="7.405"/>
					
						<rect x="367.5" y="263.23" transform="matrix(-1 -1.224647e-16 1.224647e-16 -1 738.082 533.8662)" style="fill:#FFD961;" width="3.082" height="7.405"/>
					
						<rect x="372.039" y="263.23" transform="matrix(-1 -1.224647e-16 1.224647e-16 -1 751.4844 533.8662)" style="fill:#FFD961;" width="7.406" height="7.405"/>
				</g>
				<g>
					<rect x="327.4" y="254.661" style="fill:#F7A91E;" width="49.949" height="7.406"/>
					<rect x="327.4" y="254.08" style="fill:#F9C605;" width="49.949" height="0.581"/>
					<rect x="327.4" y="262.067" style="fill:#F7A91E;" width="49.949" height="0.581"/>
					<rect x="351.832" y="254.661" style="fill:#F9C605;" width="4.469" height="7.406"/>
					
						<rect x="341.439" y="254.661" transform="matrix(-1 -1.224647e-16 1.224647e-16 -1 691.3321 516.7285)" style="fill:#F9C605;" width="8.453" height="7.406"/>
					<rect x="358.219" y="254.661" style="fill:#F9C605;" width="2.959" height="7.406"/>
					<rect x="375.916" y="254.661" style="fill:#F9C605;" width="1.434" height="7.406"/>
					
						<rect x="362.652" y="254.661" transform="matrix(-1 -1.224647e-16 1.224647e-16 -1 728.3867 516.7285)" style="fill:#FFD961;" width="3.082" height="7.406"/>
					
						<rect x="367.191" y="254.661" transform="matrix(-1 -1.224647e-16 1.224647e-16 -1 741.7891 516.7285)" style="fill:#FFD961;" width="7.406" height="7.406"/>
				</g>
				<g>
					<rect x="315.783" y="246.092" style="fill:#F7A91E;" width="49.951" height="7.405"/>
					<rect x="315.783" y="245.51" style="fill:#F9C605;" width="49.951" height="0.582"/>
					<rect x="315.783" y="253.497" style="fill:#F7A91E;" width="49.951" height="0.583"/>
					<rect x="340.217" y="246.092" style="fill:#F9C605;" width="4.469" height="7.405"/>
					
						<rect x="329.822" y="246.092" transform="matrix(-1 -1.224647e-16 1.224647e-16 -1 668.0996 499.5889)" style="fill:#F9C605;" width="8.455" height="7.405"/>
					<rect x="346.605" y="246.092" style="fill:#F9C605;" width="2.957" height="7.405"/>
					<rect x="364.301" y="246.092" style="fill:#F9C605;" width="1.434" height="7.405"/>
					
						<rect x="351.037" y="246.092" transform="matrix(-1 -1.224647e-16 1.224647e-16 -1 705.1562 499.5889)" style="fill:#FFD961;" width="3.082" height="7.405"/>
					
						<rect x="355.576" y="246.092" transform="matrix(-1 -1.224647e-16 1.224647e-16 -1 718.5586 499.5889)" style="fill:#FFD961;" width="7.406" height="7.405"/>
				</g>
				<g>
					<rect x="321.31" y="237.523" style="fill:#F7A91E;" width="49.951" height="7.406"/>
					<rect x="321.31" y="236.94" style="fill:#F9C605;" width="49.951" height="0.582"/>
					<rect x="321.31" y="244.929" style="fill:#F7A91E;" width="49.951" height="0.581"/>
					<rect x="345.742" y="237.523" style="fill:#F9C605;" width="4.469" height="7.406"/>
					
						<rect x="335.35" y="237.523" transform="matrix(-1 -1.224647e-16 1.224647e-16 -1 679.1543 482.4512)" style="fill:#F9C605;" width="8.455" height="7.406"/>
					<rect x="352.131" y="237.523" style="fill:#F9C605;" width="2.959" height="7.406"/>
					<rect x="369.826" y="237.523" style="fill:#F9C605;" width="1.435" height="7.406"/>
					
						<rect x="356.563" y="237.523" transform="matrix(-1 -1.224647e-16 1.224647e-16 -1 716.209 482.4512)" style="fill:#FFD961;" width="3.084" height="7.406"/>
					
						<rect x="361.102" y="237.523" transform="matrix(-1 -1.224647e-16 1.224647e-16 -1 729.6094 482.4512)" style="fill:#FFD961;" width="7.406" height="7.406"/>
				</g>
				<g>
					<rect x="329.766" y="228.953" style="fill:#F7A91E;" width="49.951" height="7.406"/>
					<rect x="329.766" y="228.371" style="fill:#F9C605;" width="49.951" height="0.582"/>
					<rect x="329.766" y="236.359" style="fill:#F7A91E;" width="49.951" height="0.581"/>
					<rect x="354.197" y="228.953" style="fill:#F9C605;" width="4.469" height="7.406"/>
					
						<rect x="343.805" y="228.953" transform="matrix(-1 -1.224647e-16 1.224647e-16 -1 696.0645 465.3125)" style="fill:#F9C605;" width="8.455" height="7.406"/>
					<rect x="360.586" y="228.953" style="fill:#F9C605;" width="2.957" height="7.406"/>
					<rect x="378.281" y="228.953" style="fill:#F9C605;" width="1.435" height="7.406"/>
					
						<rect x="365.018" y="228.953" transform="matrix(-1 -1.224647e-16 1.224647e-16 -1 733.1192 465.3125)" style="fill:#FFD961;" width="3.084" height="7.406"/>
					
						<rect x="369.557" y="228.953" transform="matrix(-1 -1.224647e-16 1.224647e-16 -1 746.5195 465.3125)" style="fill:#FFD961;" width="7.406" height="7.406"/>
				</g>
				<g>
					<rect x="326.06" y="220.384" style="fill:#F7A91E;" width="49.951" height="7.406"/>
					<rect x="326.06" y="219.803" style="fill:#F9C605;" width="49.951" height="0.581"/>
					<rect x="326.06" y="227.79" style="fill:#F7A91E;" width="49.951" height="0.581"/>
					<rect x="350.494" y="220.384" style="fill:#F9C605;" width="4.469" height="7.406"/>
					
						<rect x="340.1" y="220.384" transform="matrix(-1 -1.224647e-16 1.224647e-16 -1 688.6543 448.1738)" style="fill:#F9C605;" width="8.455" height="7.406"/>
					<rect x="356.883" y="220.384" style="fill:#F9C605;" width="2.957" height="7.406"/>
					<rect x="374.576" y="220.384" style="fill:#F9C605;" width="1.435" height="7.406"/>
					
						<rect x="361.314" y="220.384" transform="matrix(-1 -1.224647e-16 1.224647e-16 -1 725.711 448.1738)" style="fill:#FFD961;" width="3.082" height="7.406"/>
					
						<rect x="365.853" y="220.384" transform="matrix(-1 -1.224647e-16 1.224647e-16 -1 739.1113 448.1738)" style="fill:#FFD961;" width="7.404" height="7.406"/>
				</g>
				<g>
					<rect x="317.477" y="211.814" style="fill:#F7A91E;" width="49.951" height="7.406"/>
					<rect x="317.477" y="211.233" style="fill:#F9C605;" width="49.951" height="0.581"/>
					<rect x="317.477" y="219.221" style="fill:#F7A91E;" width="49.951" height="0.582"/>
					<rect x="341.908" y="211.814" style="fill:#F9C605;" width="4.469" height="7.406"/>
					
						<rect x="331.516" y="211.814" transform="matrix(-1 -1.224647e-16 1.224647e-16 -1 671.4844 431.0352)" style="fill:#F9C605;" width="8.453" height="7.406"/>
					<rect x="348.297" y="211.814" style="fill:#F9C605;" width="2.957" height="7.406"/>
					<rect x="365.992" y="211.814" style="fill:#F9C605;" width="1.435" height="7.406"/>
					
						<rect x="352.728" y="211.814" transform="matrix(-1 -1.224647e-16 1.224647e-16 -1 708.539 431.0352)" style="fill:#FFD961;" width="3.082" height="7.406"/>
					
						<rect x="357.268" y="211.814" transform="matrix(-1 -1.224647e-16 1.224647e-16 -1 721.9395 431.0352)" style="fill:#FFD961;" width="7.404" height="7.406"/>
				</g>
				<g>
					<rect x="324.918" y="203.246" style="fill:#F7A91E;" width="49.951" height="7.405"/>
					<rect x="324.918" y="202.664" style="fill:#F9C605;" width="49.951" height="0.582"/>
					<rect x="324.918" y="210.651" style="fill:#F7A91E;" width="49.951" height="0.582"/>
					<rect x="349.35" y="203.246" style="fill:#F9C605;" width="4.469" height="7.405"/>
					
						<rect x="338.957" y="203.246" transform="matrix(-1 -1.224647e-16 1.224647e-16 -1 686.3672 413.8975)" style="fill:#F9C605;" width="8.453" height="7.405"/>
					<rect x="355.738" y="203.246" style="fill:#F9C605;" width="2.959" height="7.405"/>
					<rect x="373.434" y="203.246" style="fill:#F9C605;" width="1.435" height="7.405"/>
					
						<rect x="360.17" y="203.246" transform="matrix(-1 -1.224647e-16 1.224647e-16 -1 723.4238 413.8975)" style="fill:#FFD961;" width="3.084" height="7.405"/>
					
						<rect x="364.709" y="203.246" transform="matrix(-1 -1.224647e-16 1.224647e-16 -1 736.8242 413.8975)" style="fill:#FFD961;" width="7.406" height="7.405"/>
				</g>
			</g>
			<g>
				<path style="fill:#2E333B;" d="M316.402,425.185H193.296c-6.538,0-11.839-5.301-11.839-11.839V146.391
					c0-6.538,5.301-11.839,11.839-11.839h123.106c6.537,0,11.838,5.301,11.838,11.839v266.955
					C328.24,419.884,322.939,425.185,316.402,425.185z"/>
				<path style="fill:#FFFFFF;" d="M313.697,414.357H196.002c-3.164,0-5.729-2.564-5.729-5.727V151.107
					c0-3.163,2.564-5.728,5.729-5.728h117.695c3.162,0,5.728,2.564,5.728,5.728V408.63
					C319.426,411.793,316.859,414.357,313.697,414.357z"/>
				<path style="fill:#C1DFF7;" d="M305.215,368.289H204.482c-3.164,0-5.727-2.564-5.727-5.729V158.791
					c0-3.164,2.563-5.729,5.727-5.729h100.732c3.164,0,5.729,2.564,5.729,5.729V362.56
					C310.943,365.725,308.379,368.289,305.215,368.289z"/>
				<path style="opacity:0.22;fill:#0451BB;" d="M305.215,368.289H204.482c-3.164,0-5.727-2.564-5.727-5.729v-11.165
					c0-3.164,2.563-5.729,5.727-5.729h100.732c3.164,0,5.729,2.564,5.729,5.729v11.165
					C310.943,365.725,308.379,368.289,305.215,368.289z"/>
				<path style="fill:#000230;" d="M285.359,401.125h-61.021c-6.247,0-11.312-5.065-11.312-11.311l0,0
					c0-6.246,5.064-11.31,11.312-11.31h61.021c6.248,0,11.31,5.064,11.31,11.31l0,0C296.67,396.06,291.607,401.125,285.359,401.125z
					"/>
				<g>
					<g>
						<path style="fill:#F7A91E;" d="M264.868,201.014c0-13.351-10.824-24.174-24.175-24.174c-13.35,0-24.174,10.823-24.174,24.174
							s10.824,24.174,24.174,24.174C254.044,225.188,264.868,214.364,264.868,201.014z"/>
						<path style="fill:#F9C605;" d="M263.917,201.014c0-12.826-10.397-23.223-23.224-23.223c-12.825,0-23.223,10.396-23.223,23.223
							c0,12.826,10.398,23.223,23.223,23.223C253.52,224.236,263.917,213.84,263.917,201.014z"/>
						<path style="fill:#F7A91E;" d="M260.444,201.014c0-10.907-8.842-19.749-19.751-19.749c-10.907,0-19.749,8.842-19.749,19.749
							c0,10.907,8.842,19.749,19.749,19.749C251.602,220.763,260.444,211.921,260.444,201.014z"/>
						<path style="fill:#FFD961;" d="M235.402,223.624l27.287-30.059c-0.95-2.808-2.423-5.375-4.302-7.585l-30.953,34.096
							C229.807,221.727,232.499,222.947,235.402,223.624z"/>
						<path style="fill:#FFD961;" d="M240.102,224.223l23.637-26.039c-0.096-0.784-0.229-1.555-0.401-2.313l-25.575,28.175
							C238.531,224.143,239.313,224.202,240.102,224.223z"/>
						<path style="fill:#F9C605;" d="M229.791,217.48c2.457,1.629,5.299,2.721,8.361,3.114l21.789-24.002
							c-0.685-2.987-2.042-5.718-3.912-8.019L229.791,217.48z"/>
						<path style="fill:#F9C605;" d="M243.415,220.572l17.009-18.735c0.012-0.273,0.021-0.547,0.021-0.823
							c0-0.625-0.034-1.244-0.09-1.855l-19.611,21.604C241.65,220.76,242.541,220.692,243.415,220.572z"/>
						<path style="fill:#FFFFFF;" d="M250.858,210.338c0.345-0.511,0.613-1.049,0.811-1.611l-3.857,4.25
							C249.118,212.285,250.135,211.405,250.858,210.338z"/>
						<path id="XMLID_10_" style="opacity:0.73;fill:#FFFFFF;" d="M248.436,201.148c0.025-0.022,0.051-0.047,0.075-0.071
							c-0.024-0.023-0.05-0.048-0.075-0.071c2.234-1.133,3.595-3.563,3.595-5.992c0-3.894-3.051-6.795-6.719-7.35v-3.263h-2.397
							v3.167l-4.325,0.013v-3.18h-2.398v3.187l-0.441,0.001l0,0h-6.365v2.398h3.611v11.09v11.087h-3.639v2.397h5.204l1.63,0.006
							v3.059h2.398v-3.052l4.325,0.013v3.039h2.397v-3.135c3.668-0.556,6.719-3.457,6.719-7.351
							C252.03,204.712,250.67,202.282,248.436,201.148z M242.347,210.379h-3.758v-7.157c1.457,0,2.883-0.032,4.34,0
							c2.138,0,3.887,1.425,3.887,3.627C246.815,209.343,244.548,210.379,242.347,210.379z M242.929,198.934
							c-1.457,0.032-2.883,0-4.34,0v-7.158h3.758c2.201,0,4.469,1.036,4.469,3.53C246.815,197.508,245.066,198.934,242.929,198.934z
							"/>
						<path style="fill:#FFFFFF;" d="M251.829,205.529c-0.453-1.838-1.659-3.5-3.394-4.381c0.025-0.022,0.051-0.047,0.075-0.071
							c-0.024-0.023-0.05-0.048-0.075-0.071c2.234-1.133,3.595-3.563,3.595-5.992c0-0.62-0.085-1.213-0.23-1.778l-9.064,9.985
							c0.065,0.001,0.129,0,0.193,0.001c2.138,0,3.887,1.425,3.887,3.627c0,2.494-2.268,3.53-4.469,3.53h-3.758v-2.591l-6.148,6.773
							h2.121l1.63,0.006v3.059h2.398v-3.052l4.325,0.013v0.763L251.829,205.529z"/>
						<g>
							<path style="fill:#FFFFFF;" d="M251.904,208.468l-5.146,5.67C249.342,213.267,251.395,211.189,251.904,208.468z"/>
							<polygon style="fill:#FFD961;" points="245.311,215.73 243.59,217.626 245.311,217.626 							"/>
						</g>
					</g>
					<g>
						<g>
							<path style="fill:#F7A91E;" d="M280.779,262.222c0-13.351-10.824-24.174-24.175-24.174c-13.35,0-24.173,10.823-24.173,24.174
								c0,13.351,10.823,24.173,24.173,24.173C269.955,286.395,280.779,275.572,280.779,262.222z"/>
							<path style="fill:#F9C605;" d="M279.828,262.222c0-12.826-10.397-23.224-23.224-23.224
								c-12.825,0-23.222,10.397-23.222,23.224c0,12.825,10.396,23.223,23.222,23.223
								C269.431,285.444,279.828,275.047,279.828,262.222z"/>
							<path style="fill:#F7A91E;" d="M276.355,262.222c0-10.907-8.842-19.749-19.751-19.749c-10.907,0-19.749,8.842-19.749,19.749
								c0,10.907,8.842,19.749,19.749,19.749C267.514,281.971,276.355,273.129,276.355,262.222z"/>
							<path style="fill:#FFD961;" d="M251.314,284.832l27.286-30.059c-0.95-2.808-2.423-5.376-4.302-7.585l-30.953,34.096
								C245.718,282.935,248.41,284.154,251.314,284.832z"/>
							<path style="fill:#FFD961;" d="M256.014,285.43l23.637-26.039c-0.096-0.783-0.229-1.554-0.401-2.311l-25.575,28.175
								C254.442,285.351,255.224,285.41,256.014,285.43z"/>
							<path style="fill:#F9C605;" d="M245.703,278.688c2.456,1.63,5.299,2.722,8.36,3.115l21.789-24.002
								c-0.684-2.988-2.042-5.718-3.912-8.019L245.703,278.688z"/>
							<path style="fill:#F9C605;" d="M259.326,281.779l17.009-18.734c0.012-0.273,0.021-0.547,0.021-0.823
								c0-0.626-0.034-1.244-0.09-1.855l-19.611,21.604C257.563,281.968,258.453,281.9,259.326,281.779z"/>
							<path style="fill:#FFFFFF;" d="M266.77,271.545c0.345-0.51,0.613-1.048,0.812-1.611l-3.857,4.25
								C265.029,273.492,266.047,272.613,266.77,271.545z"/>
							<path id="XMLID_25_" style="opacity:0.73;fill:#FFFFFF;" d="M264.347,262.356c0.026-0.022,0.052-0.048,0.075-0.071
								c-0.023-0.023-0.049-0.049-0.075-0.072c2.234-1.133,3.595-3.561,3.595-5.991c0-3.894-3.051-6.795-6.719-7.351v-3.262h-2.397
								v3.166l-4.325,0.014v-3.18h-2.398v3.186l-0.441,0.001l0,0h-6.364v2.398h3.611v11.09v11.086h-3.64v2.398h5.204l1.63,0.006
								v3.059h2.398v-3.053l4.325,0.014v3.039h2.397v-3.135c3.668-0.557,6.719-3.457,6.719-7.351
								C267.941,265.92,266.581,263.49,264.347,262.356z M258.258,271.587H254.5v-7.157c1.457,0,2.883-0.032,4.34,0
								c2.139,0,3.887,1.425,3.887,3.627C262.727,270.551,260.459,271.587,258.258,271.587z M258.84,260.142
								c-1.457,0.032-2.883,0-4.34,0v-7.158h3.758c2.201,0,4.469,1.036,4.469,3.53C262.727,258.716,260.978,260.142,258.84,260.142z
								"/>
							<path style="fill:#FFFFFF;" d="M267.74,266.736c-0.453-1.837-1.658-3.499-3.394-4.38c0.026-0.022,0.052-0.048,0.075-0.071
								c-0.023-0.023-0.049-0.049-0.075-0.072c2.234-1.133,3.595-3.561,3.595-5.991c0-0.62-0.085-1.214-0.23-1.778l-9.064,9.984
								c0.066,0.002,0.129,0,0.193,0.002c2.139,0,3.887,1.425,3.887,3.627c0,2.494-2.268,3.53-4.469,3.53H254.5v-2.591l-6.148,6.773
								h2.121l1.63,0.006v3.059h2.398v-3.053l4.325,0.014v0.762L267.74,266.736z"/>
							<g>
								<path style="fill:#FFFFFF;" d="M267.815,269.676l-5.147,5.67C265.253,274.475,267.306,272.397,267.815,269.676z"/>
								<polygon style="fill:#FFD961;" points="261.223,276.938 259.502,278.834 261.223,278.834 								"/>
							</g>
						</g>
						<g>
							<path style="fill:#F7A91E;" d="M254.833,283.495c0-13.351-10.824-24.174-24.175-24.174c-13.35,0-24.174,10.823-24.174,24.174
								c0,13.351,10.824,24.173,24.174,24.173C244.009,307.668,254.833,296.846,254.833,283.495z"/>
							<path style="fill:#F9C605;" d="M253.882,283.495c0-12.826-10.397-23.224-23.224-23.224
								c-12.825,0-23.223,10.397-23.223,23.224c0,12.825,10.397,23.223,23.223,23.223
								C243.484,306.718,253.882,296.32,253.882,283.495z"/>
							<path style="fill:#F7A91E;" d="M250.409,283.495c0-10.907-8.842-19.749-19.751-19.749c-10.907,0-19.749,8.842-19.749,19.749
								c0,10.907,8.842,19.749,19.749,19.749C241.567,303.244,250.409,294.402,250.409,283.495z"/>
							<path style="fill:#FFD961;" d="M225.367,306.105l27.287-30.06c-0.95-2.808-2.423-5.376-4.302-7.585l-30.953,34.096
								C219.771,304.209,222.464,305.428,225.367,306.105z"/>
							<path style="fill:#FFD961;" d="M230.067,306.703l23.637-26.039c-0.096-0.783-0.229-1.554-0.401-2.312l-25.575,28.175
								C228.496,306.624,229.277,306.684,230.067,306.703z"/>
							<path style="fill:#F9C605;" d="M219.756,299.961c2.457,1.63,5.299,2.722,8.361,3.115l21.789-24.002
								c-0.685-2.988-2.042-5.718-3.912-8.018L219.756,299.961z"/>
							<path style="fill:#F9C605;" d="M233.38,303.053l17.009-18.734c0.012-0.273,0.021-0.547,0.021-0.823
								c0-0.626-0.034-1.244-0.09-1.854l-19.611,21.604C231.615,303.241,232.506,303.174,233.38,303.053z"/>
							<path style="fill:#FFFFFF;" d="M240.823,292.818c0.345-0.51,0.613-1.048,0.812-1.611l-3.857,4.25
								C239.083,294.766,240.1,293.887,240.823,292.818z"/>
							<path id="XMLID_17_" style="opacity:0.73;fill:#FFFFFF;" d="M238.4,283.63c0.025-0.023,0.051-0.048,0.075-0.071
								c-0.024-0.023-0.05-0.049-0.075-0.072c2.234-1.133,3.595-3.561,3.595-5.991c0-3.893-3.051-6.795-6.719-7.351v-3.262h-2.398
								v3.166l-4.325,0.014v-3.18h-2.397v3.186l-0.441,0.001l0,0h-6.365v2.398h3.611v11.09v11.086h-3.639v2.398h5.204l1.63,0.006
								v3.059h2.397v-3.053l4.325,0.014v3.039h2.398v-3.135c3.668-0.557,6.719-3.457,6.719-7.351
								C241.995,287.193,240.635,284.764,238.4,283.63z M232.311,292.86h-3.758v-7.157c1.457,0,2.883-0.032,4.34,0
								c2.138,0,3.887,1.425,3.887,3.627C236.78,291.824,234.513,292.86,232.311,292.86z M232.894,281.415
								c-1.457,0.032-2.883,0-4.34,0v-7.158h3.758c2.201,0,4.469,1.036,4.469,3.53C236.78,279.989,235.031,281.415,232.894,281.415z
								"/>
							<path style="fill:#FFFFFF;" d="M241.794,288.01c-0.453-1.837-1.659-3.499-3.394-4.38c0.025-0.023,0.051-0.048,0.075-0.071
								c-0.024-0.023-0.05-0.049-0.075-0.072c2.234-1.133,3.595-3.561,3.595-5.991c0-0.62-0.085-1.214-0.23-1.778l-9.064,9.984
								c0.065,0.002,0.129,0,0.193,0.002c2.138,0,3.887,1.425,3.887,3.627c0,2.494-2.268,3.53-4.469,3.53h-3.758v-2.591
								l-6.148,6.773h2.121l1.63,0.006v3.059h2.397v-3.053l4.325,0.014v0.762L241.794,288.01z"/>
							<g>
								<path style="fill:#FFFFFF;" d="M241.869,290.949l-5.146,5.67C239.307,295.748,241.359,293.671,241.869,290.949z"/>
								<polygon style="fill:#FFD961;" points="235.276,298.211 233.555,300.107 235.276,300.107 								"/>
							</g>
						</g>
						<g>
							<path style="fill:#F7A91E;" d="M304.9,276.567c0-13.351-10.824-24.174-24.175-24.174c-13.35,0-24.173,10.823-24.173,24.174
								c0,13.351,10.823,24.173,24.173,24.173C294.076,300.74,304.9,289.918,304.9,276.567z"/>
							<path style="fill:#F9C605;" d="M303.949,276.567c0-12.826-10.397-23.224-23.224-23.224
								c-12.825,0-23.222,10.397-23.222,23.224c0,12.825,10.396,23.223,23.222,23.223
								C293.552,299.79,303.949,289.393,303.949,276.567z"/>
							<path style="fill:#F7A91E;" d="M300.477,276.567c0-10.907-8.842-19.749-19.751-19.749c-10.907,0-19.749,8.842-19.749,19.749
								c0,10.907,8.842,19.749,19.749,19.749C291.635,296.316,300.477,287.475,300.477,276.567z"/>
							<path style="fill:#FFD961;" d="M275.435,299.178l27.286-30.06c-0.95-2.808-2.423-5.376-4.302-7.585l-30.953,34.096
								C269.839,297.281,272.531,298.5,275.435,299.178z"/>
							<path style="fill:#FFD961;" d="M280.135,299.775l23.637-26.039c-0.096-0.783-0.229-1.554-0.401-2.311L277.795,299.6
								C278.564,299.696,279.345,299.756,280.135,299.775z"/>
							<path style="fill:#F9C605;" d="M269.824,293.033c2.456,1.63,5.299,2.722,8.36,3.115l21.789-24.002
								c-0.685-2.988-2.042-5.718-3.912-8.019L269.824,293.033z"/>
							<path style="fill:#F9C605;" d="M283.447,296.125l17.009-18.734c0.012-0.273,0.021-0.547,0.021-0.823
								c0-0.626-0.034-1.244-0.09-1.855l-19.611,21.604C281.684,296.314,282.574,296.246,283.447,296.125z"/>
							<path style="fill:#FFFFFF;" d="M290.891,285.891c0.345-0.51,0.613-1.048,0.811-1.611l-3.857,4.25
								C289.15,287.838,290.168,286.959,290.891,285.891z"/>
							<path id="XMLID_21_" style="opacity:0.73;fill:#FFFFFF;" d="M288.468,276.702c0.026-0.022,0.052-0.048,0.075-0.071
								c-0.023-0.023-0.049-0.049-0.075-0.072c2.234-1.133,3.595-3.561,3.595-5.991c0-3.894-3.051-6.795-6.719-7.351v-3.262h-2.397
								v3.166l-4.325,0.014v-3.18h-2.397v3.186l-0.441,0.001l0,0h-6.364v2.398h3.611v11.09v11.086h-3.64v2.398h5.204l1.63,0.006
								v3.059h2.397v-3.053l4.325,0.014v3.039h2.397v-3.135c3.668-0.557,6.719-3.457,6.719-7.351
								C292.063,280.266,290.702,277.836,288.468,276.702z M282.379,285.933h-3.758v-7.157c1.457,0,2.883-0.032,4.34,0
								c2.139,0,3.887,1.425,3.887,3.627C286.848,284.897,284.58,285.933,282.379,285.933z M282.961,274.487
								c-1.457,0.032-2.883,0-4.34,0v-7.158h3.758c2.201,0,4.469,1.036,4.469,3.53C286.848,273.061,285.1,274.487,282.961,274.487z"
								/>
							<path style="fill:#FFFFFF;" d="M291.861,281.082c-0.453-1.837-1.658-3.499-3.393-4.38c0.026-0.022,0.052-0.048,0.075-0.071
								c-0.023-0.023-0.049-0.049-0.075-0.072c2.234-1.133,3.595-3.561,3.595-5.991c0-0.62-0.085-1.214-0.23-1.778l-9.064,9.984
								c0.066,0.002,0.129,0,0.193,0.002c2.139,0,3.887,1.425,3.887,3.627c0,2.494-2.268,3.53-4.469,3.53h-3.758v-2.591
								l-6.148,6.773h2.121l1.63,0.006v3.059h2.397v-3.053l4.325,0.014v0.762L291.861,281.082z"/>
							<g>
								<path style="fill:#FFFFFF;" d="M291.936,284.022l-5.146,5.67C289.374,288.82,291.427,286.743,291.936,284.022z"/>
								<polygon style="fill:#FFD961;" points="285.344,291.283 283.623,293.18 285.344,293.18 								"/>
							</g>
						</g>
					</g>
					<g>
						<path style="fill:#633C2A;" d="M297.637,356.874h-84.009c-5.464,0-9.894-4.43-9.894-9.893v-59.113
							c0-5.464,4.43-9.895,9.894-9.895h84.009c5.465,0,9.895,4.431,9.895,9.895v59.113
							C307.531,352.444,303.102,356.874,297.637,356.874z"/>
						<g>
							<g>
								
									<line style="fill:none;stroke:#563324;stroke-linecap:round;stroke-linejoin:round;" x1="300.416" y1="352.609" x2="297.916" y2="352.609"/>
								<path style="fill:none;stroke:#563324;stroke-linecap:round;stroke-linejoin:round;stroke-dasharray:4.9802,4.9802;" d="
									M292.935,352.609h-77.734c-3.997,0-7.236-3.239-7.236-7.234v-55.902c0-3.996,3.239-7.235,7.236-7.235h80.225"/>
								
									<line style="fill:none;stroke:#563324;stroke-linecap:round;stroke-linejoin:round;" x1="297.916" y1="282.237" x2="300.416" y2="282.237"/>
							</g>
						</g>
						<path style="fill:#F9C605;" d="M248.623,307.395h-44.889v20.058h44.889c5.539,0,10.029-4.49,10.029-10.028
							C258.652,311.885,254.162,307.395,248.623,307.395z"/>
						<path style="fill:#282F39;" d="M255.633,317.424c0-4.403-3.569-7.972-7.972-7.972c-4.403,0-7.973,3.568-7.973,7.972
							c0,4.402,3.569,7.972,7.973,7.972C252.063,325.396,255.633,321.826,255.633,317.424z"/>
						
							<line style="fill:none;stroke:#FFFFFF;stroke-width:0.8858;stroke-linecap:round;stroke-miterlimit:10;" x1="245.229" y1="314.991" x2="250.093" y2="319.856"/>
						
							<line style="fill:none;stroke:#FFFFFF;stroke-width:0.8858;stroke-linecap:round;stroke-miterlimit:10;" x1="250.093" y1="314.991" x2="245.229" y2="319.856"/>
					</g>
				</g>
			</g>
			<g>
				<g>
					<path style="fill:#9CA1AF;" d="M377.863,433.328h-62.186c-8.777,0-15.893-7.115-15.893-15.893v-81.171
						c0-8.777,7.115-15.892,15.893-15.892h62.186c8.777,0,15.893,7.115,15.893,15.892v81.171
						C393.756,426.213,386.641,433.328,377.863,433.328z"/>
					<path style="fill:#B5B9C6;" d="M377.777,427.273h-62.014c-6.19,0-11.209-5.018-11.209-11.208v-78.431
						c0-6.19,5.02-11.209,11.209-11.209h62.014c6.19,0,11.209,5.018,11.209,11.209v78.431
						C388.986,422.255,383.967,427.273,377.777,427.273z"/>
					<path style="fill:#00AAE6;" d="M377.777,326.426h-62.014c-6.19,0-11.209,5.018-11.209,11.209v16.883h84.432v-16.883
						C388.986,331.444,383.967,326.426,377.777,326.426z"/>
				</g>
				<g>
					<g>
						<path style="fill:#FFFFFF;" d="M322.459,371.853h-10.955c-1.891,0-3.424-1.533-3.424-3.425v-7.531
							c0-1.892,1.533-3.426,3.424-3.426h10.955c1.891,0,3.424,1.534,3.424,3.426v7.531
							C325.883,370.32,324.35,371.853,322.459,371.853z"/>
						<path style="fill:#FFFFFF;" d="M342.371,371.853h-10.953c-1.891,0-3.426-1.533-3.426-3.425v-7.531
							c0-1.892,1.535-3.426,3.426-3.426h10.953c1.893,0,3.426,1.534,3.426,3.426v7.531
							C345.797,370.32,344.264,371.853,342.371,371.853z"/>
						<path style="fill:#FFFFFF;" d="M362.424,371.853h-10.953c-1.891,0-3.426-1.533-3.426-3.425v-7.531
							c0-1.892,1.535-3.426,3.426-3.426h10.953c1.891,0,3.424,1.534,3.424,3.426v7.531
							C365.848,370.32,364.314,371.853,362.424,371.853z"/>
						<path style="fill:#F9C605;" d="M382.336,371.853h-10.953c-1.891,0-3.426-1.533-3.426-3.425v-7.531
							c0-1.892,1.535-3.426,3.426-3.426h10.953c1.893,0,3.426,1.534,3.426,3.426v7.531
							C385.762,370.32,384.228,371.853,382.336,371.853z"/>
					</g>
					<g>
						<path style="fill:#FFFFFF;" d="M322.459,389.063h-10.955c-1.891,0-3.424-1.533-3.424-3.425v-7.532
							c0-1.892,1.533-3.425,3.424-3.425h10.955c1.891,0,3.424,1.533,3.424,3.425v7.532
							C325.883,387.529,324.35,389.063,322.459,389.063z"/>
						<path style="fill:#FFFFFF;" d="M342.371,389.063h-10.953c-1.891,0-3.426-1.533-3.426-3.425v-7.532
							c0-1.892,1.535-3.425,3.426-3.425h10.953c1.893,0,3.426,1.533,3.426,3.425v7.532
							C345.797,387.529,344.264,389.063,342.371,389.063z"/>
						<path style="fill:#FFFFFF;" d="M362.424,389.063h-10.953c-1.891,0-3.426-1.533-3.426-3.425v-7.532
							c0-1.892,1.535-3.425,3.426-3.425h10.953c1.891,0,3.424,1.533,3.424,3.425v7.532
							C365.848,387.529,364.314,389.063,362.424,389.063z"/>
						<path style="fill:#F9C605;" d="M382.336,389.063h-10.953c-1.891,0-3.426-1.533-3.426-3.425v-7.532
							c0-1.892,1.535-3.425,3.426-3.425h10.953c1.893,0,3.426,1.533,3.426,3.425v7.532
							C385.762,387.529,384.228,389.063,382.336,389.063z"/>
					</g>
					<g>
						<path style="fill:#FFFFFF;" d="M322.459,406.272h-10.955c-1.891,0-3.424-1.533-3.424-3.426v-7.531
							c0-1.892,1.533-3.425,3.424-3.425h10.955c1.891,0,3.424,1.533,3.424,3.425v7.531
							C325.883,404.738,324.35,406.272,322.459,406.272z"/>
						<path style="fill:#FFFFFF;" d="M342.371,406.272h-10.953c-1.891,0-3.426-1.533-3.426-3.426v-7.531
							c0-1.892,1.535-3.425,3.426-3.425h10.953c1.893,0,3.426,1.533,3.426,3.425v7.531
							C345.797,404.738,344.264,406.272,342.371,406.272z"/>
						<path style="fill:#FFFFFF;" d="M362.424,406.272h-10.953c-1.891,0-3.426-1.533-3.426-3.426v-7.531
							c0-1.892,1.535-3.425,3.426-3.425h10.953c1.891,0,3.424,1.533,3.424,3.425v7.531
							C365.848,404.738,364.314,406.272,362.424,406.272z"/>
						<path style="fill:#F9C605;" d="M382.336,406.272h-10.953c-1.891,0-3.426-1.533-3.426-3.426v-7.531
							c0-1.892,1.535-3.425,3.426-3.425h10.953c1.893,0,3.426,1.533,3.426,3.425v7.531
							C385.762,404.738,384.228,406.272,382.336,406.272z"/>
					</g>
					<g>
						<path style="fill:#FFFFFF;" d="M322.459,423.479h-10.955c-1.891,0-3.424-1.533-3.424-3.425v-7.532
							c0-1.892,1.533-3.424,3.424-3.424h10.955c1.891,0,3.424,1.532,3.424,3.424v7.532
							C325.883,421.946,324.35,423.479,322.459,423.479z"/>
						<path style="fill:#FFFFFF;" d="M342.371,423.479h-10.953c-1.891,0-3.426-1.533-3.426-3.425v-7.532
							c0-1.892,1.535-3.424,3.426-3.424h10.953c1.893,0,3.426,1.532,3.426,3.424v7.532
							C345.797,421.946,344.264,423.479,342.371,423.479z"/>
						<path style="fill:#FFFFFF;" d="M362.424,423.479h-10.953c-1.891,0-3.426-1.533-3.426-3.425v-7.532
							c0-1.892,1.535-3.424,3.426-3.424h10.953c1.891,0,3.424,1.532,3.424,3.424v7.532
							C365.848,421.946,364.314,423.479,362.424,423.479z"/>
						<path style="fill:#CD5A2E;" d="M382.336,423.479h-10.953c-1.891,0-3.426-1.533-3.426-3.425v-7.532
							c0-1.892,1.535-3.424,3.426-3.424h10.953c1.893,0,3.426,1.532,3.426,3.424v7.532
							C385.762,421.946,384.228,423.479,382.336,423.479z"/>
					</g>
				</g>
				<path style="fill:#FFFFFF;" d="M385.461,345.846c0,2.227-1.805,4.032-4.031,4.032h-69.316c-2.227,0-4.033-1.806-4.033-4.032
					v-9.635c0-2.227,1.807-4.032,4.033-4.032h69.316c2.227,0,4.031,1.806,4.031,4.032V345.846z"/>
			</g>
			<g>
				<g>
					<path style="fill:#C5AEF2;" d="M117.296,150.916h27.886l12.857,8.979l0.295-8.979c3.621,0,6.557-2.935,6.557-6.556v-28.596
						c0-3.621-2.936-6.557-6.557-6.557h-41.037c-3.621,0-6.557,2.936-6.557,6.557v28.596
						C110.739,147.981,113.675,150.916,117.296,150.916z"/>
				</g>
				<g>
					<path style="fill:#C5AEF2;" d="M364.662,110.939h-27.887l-12.855,8.979l-0.297-8.979c-3.621,0-6.557-2.936-6.557-6.557V75.787
						c0-3.621,2.936-6.557,6.557-6.557h41.039c3.621,0,6.557,2.936,6.557,6.557v28.596
						C371.219,108.004,368.283,110.939,364.662,110.939z"/>
				</g>
			</g>
			<g>
				<g>
					<path style="fill:#F7A91E;" d="M177.889,409.677c9.021-17.722,10.542-35.037,3.395-38.676
						c-1.757-0.894-6.831-3.653-6.831-3.653s-15.64,15.787-22.444,29.153c-7.685,15.096-10.226,35.022-10.226,35.022
						s5.771,3.114,6.831,3.652C155.761,438.815,168.867,427.397,177.889,409.677z"/>
					<g>
						<path style="fill:#F7A91E;" d="M172.241,406.749c9.049-17.776,10.29-35.289,2.771-39.117c-7.52-3.827-20.951,7.479-30,25.256
							s-10.29,35.289-2.77,39.116C149.761,435.831,163.191,424.525,172.241,406.749z"/>
						<path style="fill:#F9C605;" d="M171.705,406.477c8.693-17.076,9.886-33.9,2.662-37.578
							c-7.223-3.677-20.126,7.186-28.819,24.262c-8.692,17.077-9.885,33.901-2.662,37.578
							C150.109,434.416,163.012,423.553,171.705,406.477z"/>
						<path style="fill:#F7A91E;" d="M169.749,405.48c7.394-14.522,8.407-28.83,2.265-31.958
							c-6.143-3.127-17.116,6.11-24.509,20.633c-7.394,14.523-8.408,28.832-2.265,31.959
							C151.383,429.241,162.355,420.004,169.749,405.48z"/>
						<path style="fill:#FFD961;" d="M140.321,428.405l35.741-32.199c1.368-4.012,2.279-7.851,2.719-11.332l-40.541,36.523
							C138.455,424.276,139.145,426.672,140.321,428.405z"/>
						<path style="fill:#FFD961;" d="M142.563,430.549l30.961-27.892c0.478-1.069,0.925-2.135,1.341-3.192l-33.499,30.181
							C141.732,429.993,142.132,430.296,142.563,430.549z"/>
						<path style="fill:#F9C605;" d="M141.326,418.617c0.278,2.874,1.14,5.143,2.597,6.544l28.54-25.711
							c1.64-4.174,2.726-8.198,3.232-11.797L141.326,418.617z"/>
						<path style="fill:#F9C605;" d="M146.902,426.64l22.278-20.069c0.19-0.36,0.382-0.723,0.568-1.09
							c0.425-0.834,0.825-1.665,1.207-2.495l-25.687,23.142C145.781,426.384,146.329,426.55,146.902,426.64z"/>
						<path style="fill:#FFFFFF;" d="M158.031,415.147c0.54-0.58,1.055-1.22,1.549-1.913l-5.053,4.551
							C155.732,417.24,156.9,416.361,158.031,415.147z"/>
						<path id="XMLID_1_" style="opacity:0.73;fill:#FFFFFF;" d="M162.895,402.218c0.031-0.023,0.062-0.049,0.092-0.073
							c0.002-0.038,0.005-0.079,0.006-0.117c2.026-0.868,4.438-3.713,6.085-6.947c2.64-5.184,2.888-9.921,1.199-11.712l2.211-4.344
							l-1.35-0.689l-2.146,4.217l-2.444-1.223l2.155-4.233l-1.351-0.689l-2.16,4.243l-0.25-0.125h0.001l-3.585-1.824l-1.625,3.192
							l2.033,1.036l-7.517,14.766l-7.515,14.761l-2.05-1.043l-1.625,3.193l2.931,1.492l0.914,0.473l-2.073,4.074l1.35,0.688
							l2.068-4.065l2.428,1.257l-2.06,4.047l1.351,0.688l2.124-4.174c2.443,0.311,6.127-2.677,8.767-7.86
							C162.505,407.992,163.385,404.368,162.895,402.218z M153.209,412.762l-2.115-1.077l4.852-9.529
							c0.82,0.417,1.645,0.783,2.444,1.243c1.203,0.612,1.223,3.013-0.271,5.945C156.43,412.663,154.449,413.394,153.209,412.762z
							 M161.296,397.69c-0.843-0.376-1.623-0.827-2.444-1.245l4.852-9.53l2.116,1.078c1.24,0.631,1.814,2.661,0.124,5.981
							C164.451,396.905,162.5,398.302,161.296,397.69z"/>
						<path style="fill:#FFFFFF;" d="M161.837,409.022c0.99-2.575,1.438-5.135,1.058-6.805c0.031-0.023,0.062-0.049,0.092-0.073
							c0.002-0.038,0.005-0.079,0.006-0.117c2.026-0.868,4.438-3.713,6.085-6.947c0.422-0.827,0.775-1.64,1.076-2.435
							l-11.872,10.696c0.035,0.021,0.072,0.037,0.108,0.057c1.203,0.612,1.223,3.013-0.271,5.945c-1.689,3.319-3.67,4.05-4.91,3.418
							l-2.115-1.077l1.756-3.45l-8.054,7.257l1.194,0.608l0.914,0.473l-2.073,4.074l1.35,0.688l2.068-4.065l2.428,1.257
							l-0.517,1.016L161.837,409.022z"/>
						<g>
							<path style="fill:#FFFFFF;" d="M159.888,412.956l-6.741,6.074C155.191,418.611,157.756,416.435,159.888,412.956z"/>
							<polygon style="fill:#FFD961;" points="151.253,420.736 148.998,422.767 149.968,423.261 							"/>
						</g>
					</g>
				</g>
				<g>
					<path style="fill:#F7A91E;" d="M282.357,447.252c18.142,0,32.85-5.045,32.85-11.268c0-1.529,0.143-6.01,0.143-6.01
						s-19.308-5.259-32.992-5.259c-15.453,0-32.705,5.259-32.705,5.259s-0.143,5.088-0.143,6.01
						C249.51,442.207,264.217,447.252,282.357,447.252z"/>
					<g>
						<path style="fill:#F7A91E;" d="M282.401,442.315c18.197,0,32.948-5.307,32.948-11.854c0-6.547-14.751-11.854-32.948-11.854
							c-18.199,0-32.95,5.307-32.95,11.854C249.451,437.008,264.202,442.315,282.401,442.315z"/>
						<path style="fill:#F9C605;" d="M282.401,441.85c17.481,0,31.653-5.099,31.653-11.389c0-6.29-14.172-11.389-31.653-11.389
							c-17.483,0-31.654,5.099-31.654,11.389C250.747,436.751,264.919,441.85,282.401,441.85z"/>
						<path style="fill:#F7A91E;" d="M282.401,440.147c14.866,0,26.918-4.337,26.918-9.686c0-5.35-12.052-9.686-26.918-9.686
							c-14.867,0-26.92,4.336-26.92,9.686C255.481,435.81,267.534,440.147,282.401,440.147z"/>
						<path style="fill:#FFD961;" d="M251.582,427.866l40.971,13.381c3.828-0.466,7.327-1.189,10.341-2.109l-46.475-15.179
							C254.167,425.121,252.505,426.442,251.582,427.866z"/>
						<path style="fill:#FFD961;" d="M250.768,430.171l35.491,11.591c1.067-0.046,2.118-0.112,3.149-0.196l-38.4-12.542
							C250.875,429.399,250.795,429.783,250.768,430.171z"/>
						<path style="fill:#F9C605;" d="M259.957,425.114c-2.222,1.204-3.71,2.599-4.246,4.101l32.717,10.684
							c4.07-0.335,7.793-1,10.928-1.917L259.957,425.114z"/>
						<path style="fill:#F9C605;" d="M255.743,431.795l25.536,8.341c0.372,0.006,0.746,0.011,1.122,0.011
							c0.853,0,1.694-0.017,2.526-0.045l-29.444-9.616C255.486,430.93,255.577,431.367,255.743,431.795z"/>
						<path style="fill:#FFFFFF;" d="M269.692,435.445c0.693,0.169,1.427,0.3,2.196,0.397l-5.792-1.892
							C267.038,434.592,268.237,435.092,269.692,435.445z"/>
						<path id="XMLID_5_" style="opacity:0.73;fill:#FFFFFF;" d="M282.217,434.257c0.031,0.013,0.065,0.025,0.098,0.037
							c0.031-0.013,0.065-0.024,0.098-0.037c1.544,1.096,4.855,1.764,8.167,1.764c5.306,0,9.261-1.496,10.02-3.294h4.446v-1.177
							h-4.318l-0.017-2.121h4.335v-1.177h-4.344l-0.004-0.216h0.002v-3.12h-3.268v1.771h-15.116h-15.112v-1.785h-3.267v2.552
							l-0.008,0.799h-4.17v1.177h4.161l-0.018,2.121h-4.143v1.177h4.273c0.758,1.798,4.711,3.294,10.02,3.294
							C277.36,436.021,280.671,435.353,282.217,434.257z M269.635,431.271v-1.842h9.756c0,0.714,0.045,1.414,0,2.128
							c0,1.049-1.941,1.905-4.943,1.905C271.049,433.462,269.635,432.351,269.635,431.271z M285.236,431.557
							c-0.043-0.714,0-1.414,0-2.128h9.756v1.842c0,1.08-1.412,2.191-4.811,2.191C287.18,433.462,285.236,432.605,285.236,431.557z"
							/>
						<path style="fill:#FFFFFF;" d="M276.246,435.921c2.504-0.222,4.77-0.813,5.971-1.664c0.031,0.013,0.065,0.025,0.098,0.037
							c0.031-0.013,0.065-0.024,0.098-0.037c1.544,1.096,4.855,1.764,8.167,1.764c0.847,0,1.654-0.042,2.423-0.113l-13.609-4.445
							c-0.002,0.032,0.002,0.063-0.002,0.095c0,1.049-1.941,1.905-4.943,1.905c-3.398,0-4.813-1.111-4.813-2.191v-1.842h3.532
							l-9.232-3.015v1.039l-0.008,0.799h-4.17v1.177h4.161l-0.018,2.121h-1.04L276.246,435.921z"/>
						<g>
							<path style="fill:#FFFFFF;" d="M272.241,435.958l-7.728-2.523C265.699,434.701,268.531,435.709,272.241,435.958z"/>
							<polygon style="fill:#FFD961;" points="262.342,432.727 259.758,431.881 259.758,432.727 							"/>
						</g>
					</g>
				</g>
			</g>
			<g style="opacity:0.22;">
				<g>
					<g>
						<polygon style="fill:#0451BB;" points="309.42,56.9 315.307,59.16 309.42,61.42 307.531,68.461 305.643,61.42 299.756,59.16 
							305.643,56.9 307.531,49.859 						"/>
					</g>
					<g>
						<polygon style="fill:#0451BB;" points="73.949,231.221 79.212,233.242 73.949,235.262 72.26,241.557 70.571,235.262 
							65.31,233.242 70.571,231.221 72.26,224.926 						"/>
					</g>
					<g>
						<polygon style="fill:#0451BB;" points="181.241,115.612 185.327,117.181 181.241,118.75 179.931,123.638 178.618,118.75 
							174.533,117.181 178.618,115.612 179.931,110.726 						"/>
					</g>
					<g>
						<polygon style="fill:#0451BB;" points="117.112,81.706 121.198,83.274 117.112,84.843 115.801,89.73 114.489,84.843 
							110.404,83.274 114.489,81.706 115.801,76.819 						"/>
					</g>
					<g>
						<polygon style="fill:#0451BB;" points="400.115,212.54 404.568,214.8 400.115,217.059 398.688,224.1 397.258,217.059 
							392.807,214.8 397.258,212.54 398.688,205.499 						"/>
					</g>
					<path style="fill:#0451BB;" d="M271.953,109.208c0,0.966-0.783,1.748-1.748,1.748c-0.965,0-1.748-0.782-1.748-1.748
						c0-0.965,0.783-1.748,1.748-1.748C271.17,107.46,271.953,108.243,271.953,109.208z"/>
					<path style="fill:#0451BB;" d="M330.473,75.293c0,0.65-0.527,1.178-1.178,1.178s-1.178-0.527-1.178-1.178
						s0.527-1.178,1.178-1.178S330.473,74.643,330.473,75.293z"/>
					<path style="fill:#0451BB;" d="M397.199,74.115c0,1.901-1.543,3.443-3.443,3.443c-1.902,0-3.443-1.542-3.443-3.443
						c0-1.901,1.541-3.443,3.443-3.443C395.656,70.672,397.199,72.214,397.199,74.115z"/>
					<path style="fill:#0451BB;" d="M158.966,59.16c0,0.658-0.534,1.192-1.193,1.192c-0.658,0-1.192-0.534-1.192-1.192
						c0-0.66,0.534-1.193,1.192-1.193C158.432,57.967,158.966,58.5,158.966,59.16z"/>
					<path style="fill:#0451BB;" d="M257.279,70.672c0,1.351-1.096,2.446-2.445,2.446c-1.352,0-2.447-1.096-2.447-2.446
						s1.096-2.446,2.447-2.446C256.184,68.226,257.279,69.321,257.279,70.672z"/>
					<path style="fill:#0451BB;" d="M92.065,144.605c0,1.858-1.506,3.363-3.363,3.363c-1.858,0-3.364-1.505-3.364-3.363
						c0-1.857,1.506-3.363,3.364-3.363C90.56,141.241,92.065,142.747,92.065,144.605z"/>
					<path style="fill:#0451BB;" d="M118.625,253.942c0,0.78-0.632,1.411-1.411,1.411c-0.78,0-1.412-0.631-1.412-1.411
						c0-0.779,0.632-1.411,1.412-1.411C117.993,252.531,118.625,253.163,118.625,253.942z"/>
					<path style="fill:#0451BB;" d="M430.563,204.661c0,0.863-0.699,1.563-1.565,1.563c-0.863,0-1.563-0.699-1.563-1.563
						c0-0.863,0.699-1.563,1.563-1.563C429.863,203.098,430.563,203.798,430.563,204.661z"/>
					<path style="fill:#0451BB;" d="M368.054,193.235c0,1.678-1.359,3.037-3.037,3.037s-3.035-1.359-3.035-3.037
						c0-1.677,1.358-3.036,3.035-3.036S368.054,191.559,368.054,193.235z"/>
				</g>
			</g>
		</g>
	</g>
</g>
<g id="TEXTS">
	<text transform="matrix(1 0 0 1 228.5186 395.6122)" style="fill:#FFFFFF; font-family:'Poppins-Black'; font-size:15.9585px;">START</text>
	<text transform="matrix(1 0 0 1 126.1881 139.6874)" style="fill:#FFFFFF; font-family:'Poppins-Black'; font-size:26.5068px;">%</text>
	<text transform="matrix(1 0 0 1 330.9067 99.7104)" style="fill:#FFFFFF; font-family:'Poppins-Black'; font-size:26.5068px;">%</text>
	<g>
		<g>
			<text transform="matrix(1 0 0 1 315.3921 367.9434)" style="fill:#2E333B; font-family:'Poppins-Black'; font-size:7.9719px;">1</text>
		</g>
		<g>
			<text transform="matrix(1 0 0 1 354.4956 367.9434)" style="fill:#2E333B; font-family:'Poppins-Black'; font-size:7.9719px;">3</text>
		</g>
		<g>
			<text transform="matrix(1 0 0 1 374.6646 367.9434)" style="fill:#2E333B; font-family:'Poppins-Black'; font-size:7.9719px;">+</text>
		</g>
		<g>
			<text transform="matrix(1 0 0 1 334.6392 367.9434)" style="fill:#2E333B; font-family:'Poppins-Black'; font-size:7.9719px;">2</text>
		</g>
		<g>
			<text transform="matrix(1 0 0 1 314.1772 384.6622)" style="fill:#2E333B; font-family:'Poppins-Black'; font-size:7.9719px;">4</text>
		</g>
		<g>
			<text transform="matrix(1 0 0 1 354.4233 384.6622)" style="fill:#2E333B; font-family:'Poppins-Black'; font-size:7.9719px;">6</text>
		</g>
		<g>
			<text transform="matrix(1 0 0 1 374.5649 384.6622)" style="fill:#2E333B; font-family:'Poppins-Black'; font-size:7.9719px;">-</text>
		</g>
		<g>
			<text transform="matrix(1 0 0 1 334.2642 384.6622)" style="fill:#2E333B; font-family:'Poppins-Black'; font-size:7.9719px;">5</text>
		</g>
		<g>
			<text transform="matrix(1 0 0 1 314.9419 402.046)" style="fill:#2E333B; font-family:'Poppins-Black'; font-size:7.9719px;">7</text>
		</g>
		<g>
			<text transform="matrix(1 0 0 1 354.5669 402.046)" style="fill:#2E333B; font-family:'Poppins-Black'; font-size:7.9719px;">9</text>
		</g>
		<g>
			<text transform="matrix(1 0 0 1 374.1978 401.3692)" style="fill:#2E333B; font-family:'Poppins-Black'; font-size:7.9719px;">x</text>
		</g>
		<g>
			<text transform="matrix(1 0 0 1 334.2759 402.046)" style="fill:#2E333B; font-family:'Poppins-Black'; font-size:7.9719px;">8</text>
		</g>
		<g>
			<text transform="matrix(1 0 0 1 314.3442 419.4286)" style="fill:#2E333B; font-family:'Poppins-Black'; font-size:7.9719px;">0</text>
		</g>
		<g>
			<text transform="matrix(1 0 0 1 353.2075 419.4286)" style="fill:#2E333B; font-family:'Poppins-Black'; font-size:7.9719px;">%</text>
		</g>
		<g>
			<text transform="matrix(1 0 0 1 374.3657 419.0536)" style="fill:#2E333B; font-family:'Poppins-Black'; font-size:7.9719px;">=</text>
		</g>
		<g>
			<text transform="matrix(1 0 0 1 335.6235 419.4286)" style="fill:#2E333B; font-family:'Poppins-Black'; font-size:7.9719px;">.</text>
		</g>
	</g>
</g>
</svg>
